<?xml version="1.0" encoding="utf-8"?>
<!-- Generator: Adobe Illustrator 16.0.0, SVG Export Plug-In . SVG Version: 6.00 Build 0)  -->
<!DOCTYPE svg PUBLIC "-//W3C//DTD SVG 1.1//EN" "http://www.w3.org/Graphics/SVG/1.1/DTD/svg11.dtd">
<svg version="1.1" id="Layer_1" xmlns="http://www.w3.org/2000/svg" xmlns:xlink="http://www.w3.org/1999/xlink" x="0px" y="0px"
	 width="200px" height="200px" viewBox="0 0 200 200" enable-background="new 0 0 200 200" xml:space="preserve">
<path fill="#AAAAAA" d="M162.756,59.95c0,5.496-4.455,9.951-9.951,9.951H89.413c-5.496,0-9.951-4.455-9.951-9.951l0,0
	c0-5.495,4.455-9.95,9.951-9.95h63.392C158.301,50,162.756,54.455,162.756,59.95L162.756,59.95z"/>
<path fill="#AAAAAA" d="M162.756,140.049c0,5.496-4.455,9.951-9.951,9.951H89.413c-5.496,0-9.951-4.455-9.951-9.951l0,0
	c0-5.497,4.455-9.951,9.951-9.951h63.392C158.301,130.098,162.756,134.552,162.756,140.049L162.756,140.049z"/>
<path fill="#AAAAAA" d="M152.805,149.753c-5.496,0-9.951-4.455-9.951-9.95V61.67c0-5.496,4.455-9.951,9.951-9.951l0,0
	c5.496,0,9.951,4.455,9.951,9.951v78.133C162.756,145.298,158.301,149.753,152.805,149.753L152.805,149.753z"/>
<path fill="#AAAAAA" d="M39.564,105.197l22.193,22.194c3.091,3.091,8.104,3.091,11.195,0c3.092-3.093,3.092-8.104,0-11.195
	l-8.664-8.664h38.446c4.373,0,7.918-3.544,7.918-7.915c0-4.373-3.545-7.915-7.918-7.915H64.275l8.671-8.661
	c3.094-3.09,3.097-8.101,0.007-11.195c-1.546-1.548-3.573-2.321-5.6-2.321c-2.025,0-4.05,0.771-5.595,2.314L39.567,94.002
	c-1.486,1.484-2.321,3.499-2.322,5.598C37.243,101.699,38.08,103.715,39.564,105.197z"/>
</svg>
