<?xml version="1.0" encoding="utf-8"?>
<!-- Generator: Adobe Illustrator 16.0.0, SVG Export Plug-In . SVG Version: 6.00 Build 0)  -->
<!DOCTYPE svg PUBLIC "-//W3C//DTD SVG 1.1//EN" "http://www.w3.org/Graphics/SVG/1.1/DTD/svg11.dtd">
<svg version="1.1" id="Layer_1" xmlns="http://www.w3.org/2000/svg" xmlns:xlink="http://www.w3.org/1999/xlink" x="0px" y="0px"
	 width="200px" height="200px" viewBox="0 0 200 200" enable-background="new 0 0 200 200" xml:space="preserve">
<g>
	<path fill="#E84342" d="M52.434,105.817c1.647,2.095,7.851-4.343,11.522,0.325c2.092,2.66,0.896,5.799-2.018,8.09
		c-2.434,1.914-5.168,2.28-6.565,1.959c-0.449-0.105-0.763-0.271-1.03-0.61c-0.578-0.735-0.445-1.847,0.291-2.426
		c0.282-0.223,0.633-0.36,1.144-0.351c1.253,0.021,2.61-0.176,4.024-1.288c1.273-1.001,1.826-1.985,1.203-2.778
		c-1.802-2.291-7.799,4.35-11.582-0.461c-2.003-2.546-0.859-5.459,1.743-7.507c2.009-1.58,4.392-2.218,5.962-1.851
		c0.348,0.092,0.617,0.202,0.951,0.626c0.578,0.735,0.445,1.847-0.29,2.425c-0.396,0.312-0.784,0.344-1.273,0.361
		c-0.978,0.037-2.099,0.186-3.258,1.098C52.21,104.253,51.878,105.111,52.434,105.817z"/>
	<path fill="#E84342" d="M74.943,104.096c-3.82,3.005-7.91,2.695-11.537-1.916c-3.65-4.64-2.986-8.687,0.832-11.691
		c3.82-3.004,7.91-2.696,11.561,1.944C79.425,97.044,78.761,101.092,74.943,104.096z M66.286,93.091
		c-2.037,1.602-1.999,3.862,0.204,6.664c2.18,2.772,4.368,3.341,6.405,1.74c2.037-1.603,1.999-3.864-0.181-6.636
		C70.511,92.057,68.323,91.488,66.286,93.091z"/>
	<path fill="#E84342" d="M84.611,74.464c2.602-2.047,5.125-1.926,6.146-1.676c0.471,0.133,0.734,0.292,1.002,0.632
		c0.6,0.764,0.474,1.825-0.291,2.426c-0.452,0.356-0.947,0.425-1.425,0.343c-0.679-0.107-1.972-0.235-3.386,0.877
		c-1.98,1.558-1.854,3.931,0.238,6.59c2.136,2.716,4.391,3.37,6.371,1.812c1.302-1.024,1.639-2.343,1.91-3.335
		c0.134-0.471,0.344-0.729,0.627-0.951c0.764-0.601,1.826-0.474,2.427,0.29c0.312,0.396,0.437,0.847,0.342,1.425
		c-0.184,1.106-0.938,3.349-3.259,5.174c-3.848,3.026-7.875,2.622-11.502-1.99C80.185,81.471,80.763,77.49,84.611,74.464z"/>
	<path fill="#E84342" d="M108.133,77.99c-3.82,3.004-7.911,2.695-11.538-1.916c-3.65-4.64-2.986-8.688,0.832-11.692
		c3.821-3.004,7.911-2.695,11.559,1.945C112.615,70.938,111.951,74.985,108.133,77.99z M99.475,66.984
		c-2.037,1.602-1.999,3.862,0.204,6.663c2.18,2.772,4.368,3.342,6.405,1.74c2.037-1.603,2-3.863-0.18-6.635
		C103.701,65.951,101.512,65.382,99.475,66.984z"/>
	<path fill="#E84342" d="M121.162,53.681l5.564,7.072c0.666,0.849,0.479,2.005-0.371,2.673c-0.906,0.712-2.018,0.579-2.686-0.27
		l-5.119-6.507c-1.268-1.613-2.785-2.204-4.625-0.758c-2.123,1.669-1.85,3.47-0.537,5.14l4.963,6.309
		c0.668,0.849,0.506,1.984-0.371,2.674c-0.877,0.689-2.018,0.579-2.684-0.27l-8.102-10.298c-0.668-0.849-0.521-2.062,0.326-2.729
		c0.848-0.668,2.062-0.523,2.73,0.326c-0.109-1.243,0.389-3.055,2.285-4.546C116.385,49.47,119.227,51.219,121.162,53.681z"/>
	<path fill="#E84342" d="M122.605,49.34c-0.707,0.556-1.719,0.436-2.275-0.271s-0.436-1.718,0.271-2.274l0.594-0.467l-1.201-1.528
		c-2.07-2.631-2.184-6.388,1.465-9.259c0.736-0.578,1.797-0.451,2.375,0.284c0.58,0.736,0.453,1.797-0.283,2.375
		c-1.557,1.225-1.658,2.725-0.68,3.97l1.381,1.754l1.896-1.491c0.707-0.556,1.717-0.437,2.273,0.271s0.436,1.719-0.271,2.275
		l-1.896,1.491l7.121,9.053c0.668,0.849,0.48,2.005-0.369,2.673c-0.906,0.712-2.018,0.579-2.686-0.27l-7.121-9.053L122.605,49.34z"
		/>
	<path fill="#E84342" d="M133.34,38.881l5.184,6.592c1.025,1.301,2.457,2.19,4.551,0.543c2.064-1.625,1.539-3.226,0.514-4.527
		l-5.184-6.592c-0.668-0.849-0.523-2.062,0.326-2.73s2.061-0.522,2.729,0.326l5.186,6.592c2.182,2.773,3.137,6.143-1.389,9.703
		c-4.557,3.583-7.605,1.86-9.787-0.913l-5.184-6.592c-0.668-0.849-0.523-2.062,0.324-2.729
		C131.459,37.887,132.672,38.033,133.34,38.881z"/>
	<path fill="#E84342" d="M148.637,30.146c1.648,2.094,7.85-4.343,11.521,0.326c2.092,2.659,0.896,5.798-2.016,8.09
		c-2.434,1.914-5.17,2.279-6.566,1.958c-0.449-0.105-0.764-0.27-1.029-0.61c-0.578-0.735-0.445-1.848,0.291-2.427
		c0.281-0.222,0.631-0.36,1.143-0.35c1.254,0.022,2.609-0.175,4.025-1.288c1.271-1.001,1.826-1.986,1.203-2.778
		c-1.803-2.292-7.799,4.349-11.582-0.46c-2.004-2.546-0.861-5.46,1.742-7.507c2.008-1.58,4.391-2.218,5.963-1.852
		c0.348,0.093,0.617,0.202,0.951,0.626c0.578,0.735,0.445,1.848-0.291,2.426c-0.396,0.312-0.783,0.343-1.273,0.361
		c-0.979,0.037-2.098,0.185-3.258,1.098C148.414,28.581,148.082,29.439,148.637,30.146z"/>
	<path fill="#E84342" d="M160.383,14.861c4.783-3.761,8.553-0.773,10.088,1.179c0.822,1.046,1.779,2.263,0.055,3.621l-6.988,5.497
		c1.602,2.037,3.779,1.836,5.646,0.367c1.244-0.979,1.789-2.094,2.111-3.08c0.156-0.443,0.293-0.735,0.66-1.024
		c0.736-0.579,1.797-0.451,2.375,0.284c0.357,0.453,0.42,0.999,0.344,1.425c-0.125,0.831-0.758,3.114-3.332,5.139
		c-3.932,3.093-8.035,2.885-11.75-1.84C156.186,22.101,156.537,17.888,160.383,14.861z M161.619,22.545l5.602-4.406
		c-1.092-1.386-2.951-2.121-4.789-0.675C160.791,18.754,160.336,20.623,161.619,22.545z"/>
</g>
<g>
	<path fill="#E84342" d="M40.437,167.719l-2.421,10.607c-0.277,1.121-1.243,1.941-2.394,2.002s-2.1-0.61-2.533-1.549l-7.472-16.768
		c-0.161-0.328-0.284-0.85-0.3-1.139c-0.075-1.438,1.014-2.648,2.453-2.725c1.102-0.058,2.094,0.516,2.533,1.549l4.601,11.584
		l2.599-11.771c0.195-0.876,0.957-1.925,2.395-2c1.295-0.068,2.254,0.793,2.536,1.596l3.832,11.576l3.309-12.002
		c0.328-1.074,1.253-1.747,2.403-1.808c1.486-0.079,2.645,0.917,2.721,2.355c0.015,0.288-0.061,0.676-0.187,1.02l-5.649,17.747
		c-0.328,1.074-1.208,1.699-2.311,1.757c-1.15,0.062-2.198-0.653-2.589-1.69L40.437,167.719z"/>
	<path fill="#E84342" d="M62.801,158.896c0.838-1.438,2.772-3.031,5.984-3.2c6.52-0.344,8.274,3.745,8.494,7.916l0.632,11.984
		c0.076,1.438-1.019,2.554-2.457,2.63c-1.533,0.08-2.644-0.918-2.72-2.357l-0.582-11.025c-0.144-2.732-1.345-4.544-4.461-4.379
		c-3.596,0.189-4.683,2.361-4.534,5.189l0.564,10.691c0.076,1.438-0.971,2.551-2.457,2.629c-1.485,0.078-2.644-0.918-2.72-2.356
		l-1.553-29.434c-0.076-1.438,1.014-2.648,2.452-2.724c1.438-0.076,2.648,1.012,2.725,2.451L62.801,158.896z"/>
	<path fill="#E84342" d="M85.517,161.256c-0.461,0.361-0.837,0.523-1.413,0.554c-1.246,0.065-2.306-0.887-2.371-2.133
		c-0.028-0.528,0.133-1.114,0.539-1.614c1.264-1.559,3.577-3.266,7.7-3.484c5.944-0.312,9.646,2.424,9.914,7.506l0.647,12.271
		c0.073,1.391-1.017,2.602-2.406,2.675c-1.391,0.073-2.602-1.017-2.675-2.407c-1.187,2.131-3.257,2.96-6.134,3.111
		c-4.697,0.248-7.968-2.512-8.196-6.826c-0.234-4.457,3.239-6.949,7.41-7.169l6.279-0.331l-0.046-0.862
		c-0.113-2.156-1.771-3.511-4.551-3.364C88.105,159.293,86.67,160.329,85.517,161.256z M95.095,168.778l-0.071-1.342l-5.608,0.296
		c-2.108,0.111-3.206,1.178-3.115,2.903c0.096,1.821,1.449,2.855,4.133,2.714C92.974,173.216,95.236,171.463,95.095,168.778z"/>
	<path fill="#E84342" d="M105.516,150.395c-0.073-1.391,1.017-2.602,2.407-2.675c1.39-0.073,2.602,1.015,2.675,2.405l0.213,4.027
		l2.157-0.114c1.198-0.063,2.207,0.845,2.271,2.044c0.063,1.197-0.845,2.207-2.043,2.271l-2.157,0.114l0.611,11.602
		c0.059,1.102,1.05,1.675,1.913,1.629c1.246-0.065,2.306,0.889,2.371,2.135c0.066,1.246-0.888,2.306-2.134,2.371
		c-4.267,0.226-7.047-2.367-7.247-6.154l-0.597-11.314l-1.103,0.059c-1.198,0.062-2.208-0.846-2.271-2.043
		c-0.063-1.199,0.845-2.209,2.043-2.271l1.103-0.059L105.516,150.395z"/>
</g>
<g>
	<path fill="#E84342" d="M103.74,118.65c-0.075,1.774,5.857,1.211,5.688,5.168c-0.097,2.254-2.063,3.322-4.534,3.217
		c-2.062-0.089-3.604-1.091-4.172-1.859c-0.182-0.249-0.269-0.469-0.256-0.756c0.027-0.624,0.577-1.129,1.2-1.102
		c0.24,0.01,0.477,0.093,0.732,0.318c0.624,0.556,1.396,1.046,2.595,1.098c1.079,0.046,1.787-0.213,1.816-0.885
		c0.083-1.942-5.836-1.186-5.662-5.263c0.093-2.158,1.937-3.137,4.143-3.042c1.703,0.073,3.185,0.785,3.822,1.652
		c0.135,0.198,0.223,0.371,0.207,0.73c-0.026,0.624-0.575,1.128-1.198,1.102c-0.336-0.015-0.547-0.167-0.802-0.371
		c-0.512-0.406-1.143-0.816-2.126-0.859C104.307,117.762,103.766,118.05,103.74,118.65z"/>
	<path fill="#E84342" d="M114.027,117.36l-0.239,5.587c-0.047,1.103,0.293,2.176,2.066,2.251c1.751,0.075,2.18-0.965,2.227-2.067
		l0.239-5.587c0.03-0.72,0.632-1.271,1.351-1.24c0.719,0.031,1.27,0.632,1.239,1.351l-0.239,5.588
		c-0.101,2.349-1.079,4.47-4.917,4.306c-3.86-0.165-4.655-2.362-4.555-4.711l0.239-5.588c0.03-0.719,0.631-1.27,1.35-1.239
		C113.509,116.041,114.058,116.641,114.027,117.36z"/>
	<path fill="#E84342" d="M127.949,116.514c2.206,0.095,3.431,1.252,3.837,1.821c0.182,0.273,0.245,0.467,0.233,0.755
		c-0.028,0.648-0.553,1.13-1.201,1.103c-0.383-0.017-0.663-0.196-0.869-0.446c-0.298-0.349-0.896-0.975-2.095-1.025
		c-1.678-0.072-2.644,1.184-2.74,3.438c-0.099,2.303,0.758,3.611,2.436,3.684c1.104,0.047,1.847-0.474,2.415-0.857
		c0.273-0.181,0.49-0.22,0.73-0.21c0.647,0.027,1.13,0.555,1.102,1.201c-0.014,0.336-0.146,0.618-0.444,0.871
		c-0.574,0.479-1.93,1.286-3.896,1.202c-3.261-0.14-5.123-2.094-4.956-6.003C122.667,118.138,124.688,116.374,127.949,116.514z"/>
	<path fill="#E84342" d="M136.351,118.314c0.485-0.676,1.525-1.376,3.131-1.308c3.262,0.14,3.939,2.259,3.851,4.345l-0.256,5.996
		c-0.031,0.719-0.629,1.222-1.349,1.19c-0.767-0.032-1.272-0.582-1.241-1.301l0.235-5.517c0.059-1.366-0.452-2.325-2.012-2.393
		c-1.798-0.077-2.443,0.953-2.504,2.368l-0.229,5.348c-0.031,0.719-0.604,1.223-1.349,1.191c-0.743-0.032-1.271-0.583-1.24-1.302
		l0.629-14.725c0.031-0.72,0.631-1.271,1.35-1.239c0.72,0.03,1.271,0.63,1.239,1.35L136.351,118.314z"/>
	<path fill="#E84342" d="M161.056,123.72c-0.167,3.908-2.14,5.674-5.377,5.535c-2.902-0.124-4.896-1.818-4.76-5.008l0.482-11.295
		c0.031-0.72,0.632-1.271,1.351-1.239c0.719,0.03,1.271,0.63,1.239,1.35l-0.235,5.516c0.501-0.459,1.528-0.896,2.679-0.847
		C159.457,117.861,161.223,119.812,161.056,123.72z M153.509,124.357c-0.071,1.654,0.872,2.632,2.264,2.69
		c1.653,0.071,2.616-1.089,2.717-3.438c0.102-2.373-0.782-3.612-2.412-3.683c-1.439-0.062-2.427,1.121-2.427,1.121L153.509,124.357z
		"/>
	<path fill="#E84342" d="M164.977,121.316c-0.246,0.158-0.441,0.222-0.729,0.21c-0.623-0.027-1.105-0.552-1.079-1.176
		c0.012-0.265,0.119-0.548,0.347-0.779c0.702-0.713,1.936-1.454,3.997-1.365c2.974,0.127,4.687,1.665,4.577,4.207l-0.262,6.14
		c-0.03,0.695-0.631,1.246-1.326,1.216c-0.695-0.029-1.246-0.629-1.216-1.324c-0.691,1.003-1.762,1.317-3.201,1.256
		c-2.351-0.101-3.846-1.63-3.754-3.788c0.096-2.23,1.942-3.304,4.028-3.215l3.142,0.135l0.019-0.433
		c0.047-1.079-0.714-1.832-2.105-1.892C166.358,120.463,165.595,120.91,164.977,121.316z M169.386,125.517l0.028-0.671l-2.806-0.12
		c-1.055-0.045-1.652,0.434-1.689,1.297c-0.039,0.911,0.586,1.49,1.928,1.547C168.118,127.624,169.328,126.86,169.386,125.517z"/>
	<path fill="#E84342" d="M181.499,119.765l0.235-5.516c0.031-0.72,0.631-1.27,1.351-1.239c0.719,0.03,1.271,0.631,1.239,1.351
		l-0.482,11.295c-0.137,3.189-2.269,4.707-5.17,4.583c-3.237-0.138-5.052-2.065-4.885-5.975c0.167-3.908,2.093-5.7,5.114-5.571
		C180.053,118.742,181.039,119.265,181.499,119.765z M181.394,122.234c0,0-0.884-1.263-2.323-1.324
		c-1.63-0.069-2.615,1.09-2.717,3.463c-0.101,2.35,0.759,3.588,2.412,3.658c1.392,0.06,2.415-0.833,2.486-2.487L181.394,122.234z"/>
</g>
</svg>
