<?xml version="1.0" encoding="utf-8"?>
<!-- Generator: Adobe Illustrator 16.0.0, SVG Export Plug-In . SVG Version: 6.00 Build 0)  -->
<!DOCTYPE svg PUBLIC "-//W3C//DTD SVG 1.1//EN" "http://www.w3.org/Graphics/SVG/1.1/DTD/svg11.dtd">
<svg version="1.1" id="Layer_1" xmlns="http://www.w3.org/2000/svg" xmlns:xlink="http://www.w3.org/1999/xlink" x="0px" y="0px"
	 width="200px" height="200px" viewBox="0 0 200 200" enable-background="new 0 0 200 200" xml:space="preserve">
<g>
	<path fill="#5CBA47" d="M42.004,70.239c0.872,2.518,8.839-1.536,10.782,4.076c1.107,3.197-1.049,5.772-4.553,6.985
		c-2.925,1.013-5.629,0.464-6.844-0.296c-0.391-0.247-0.633-0.506-0.773-0.914c-0.307-0.884,0.182-1.891,1.066-2.197
		c0.34-0.118,0.716-0.134,1.196,0.043c1.177,0.43,2.523,0.688,4.225,0.099c1.53-0.53,2.376-1.28,2.046-2.232
		c-0.954-2.755-8.793,1.56-10.795-4.223c-1.061-3.062,0.973-5.441,4.102-6.524c2.415-0.837,4.876-0.661,6.24,0.2
		c0.299,0.201,0.518,0.393,0.694,0.902c0.306,0.885-0.184,1.893-1.067,2.198c-0.477,0.165-0.854,0.066-1.322-0.076
		c-0.936-0.285-2.043-0.511-3.438-0.028C42.305,68.687,41.71,69.389,42.004,70.239z"/>
	<path fill="#5CBA47" d="M55.647,62.772l2.744,7.926c0.542,1.564,1.604,2.872,4.122,2.001c2.482-0.86,2.509-2.545,1.967-4.109
		l-2.744-7.926c-0.353-1.021,0.181-2.119,1.2-2.473c1.021-0.354,2.119,0.181,2.473,1.201l2.744,7.925
		c1.154,3.334,0.957,6.831-4.485,8.715c-5.477,1.896-7.796-0.729-8.95-4.062l-2.744-7.925c-0.354-1.021,0.182-2.12,1.201-2.473
		C54.195,61.218,55.294,61.751,55.647,62.772z"/>
	<path fill="#5CBA47" d="M74.603,53.923c3.129-1.083,5.474-0.143,6.356,0.428c0.401,0.279,0.599,0.517,0.739,0.925
		c0.318,0.918-0.148,1.88-1.066,2.197c-0.545,0.188-1.035,0.092-1.459-0.142c-0.607-0.323-1.786-0.868-3.487-0.279
		c-2.381,0.825-3.037,3.109-1.931,6.307c1.131,3.265,3.048,4.62,5.429,3.796c1.565-0.542,2.314-1.678,2.896-2.526
		c0.28-0.401,0.562-0.576,0.902-0.693c0.918-0.318,1.881,0.148,2.198,1.067c0.166,0.476,0.136,0.943-0.143,1.458
		c-0.535,0.985-1.981,2.857-4.771,3.823c-4.626,1.603-8.3-0.097-10.22-5.641C68.128,59.098,69.977,55.526,74.603,53.923z"/>
	<path fill="#5CBA47" d="M87.318,51.806c0.304-1.21,1.367-2.759,3.646-3.548c4.626-1.603,6.739,0.98,7.764,3.939l2.944,8.503
		c0.354,1.021-0.203,2.052-1.224,2.405c-1.089,0.377-2.097-0.112-2.45-1.133L95.29,54.15c-0.671-1.938-1.912-2.995-4.123-2.229
		c-2.552,0.884-2.883,2.675-2.188,4.682l2.627,7.585c0.353,1.021-0.171,2.04-1.226,2.405c-1.053,0.364-2.096-0.113-2.448-1.134
		L80.7,44.575c-0.354-1.021,0.181-2.12,1.2-2.473c1.021-0.354,2.12,0.18,2.474,1.2L87.318,51.806z"/>
	<path fill="#5CBA47" d="M114.267,40.189c3.13-1.083,5.475-0.144,6.357,0.428c0.401,0.279,0.598,0.517,0.739,0.925
		c0.318,0.918-0.149,1.879-1.067,2.197c-0.544,0.188-1.034,0.092-1.459-0.143c-0.606-0.322-1.786-0.867-3.486-0.278
		c-2.381,0.825-3.037,3.109-1.93,6.307c1.131,3.265,3.047,4.62,5.428,3.796c1.564-0.542,2.314-1.678,2.896-2.527
		c0.28-0.4,0.562-0.575,0.902-0.692c0.918-0.318,1.881,0.148,2.199,1.066c0.164,0.477,0.135,0.943-0.144,1.459
		c-0.535,0.985-1.981,2.857-4.771,3.823c-4.625,1.602-8.299-0.098-10.219-5.642S109.642,41.791,114.267,40.189z"/>
	<path fill="#5CBA47" d="M135.342,51.213c-4.592,1.591-8.355-0.039-10.275-5.583c-1.932-5.579,0.019-9.187,4.61-10.777
		c4.592-1.59,8.355,0.04,10.287,5.618C141.884,46.015,139.934,49.624,135.342,51.213z M130.761,37.982
		c-2.449,0.849-3.152,2.996-1.986,6.364c1.154,3.333,3.035,4.586,5.484,3.738s3.152-2.996,1.999-6.329
		C135.092,38.387,133.21,37.134,130.761,37.982z"/>
	<path fill="#5CBA47" d="M152.215,45.372c-4.592,1.59-8.356-0.04-10.275-5.584c-1.932-5.578,0.019-9.187,4.61-10.776
		s8.355,0.039,10.287,5.618C158.757,40.173,156.807,43.782,152.215,45.372z M147.633,32.14c-2.449,0.848-3.152,2.996-1.986,6.363
		c1.154,3.333,3.035,4.587,5.484,3.738c2.449-0.848,3.153-2.996,1.999-6.329C151.964,32.545,150.082,31.292,147.633,32.14z"/>
	<path fill="#5CBA47" d="M158.124,17.765l6.454,18.64c0.142,0.408,0.62,0.472,0.858,0.389c0.952-0.329,1.96,0.16,2.289,1.112
		c0.33,0.952-0.158,1.96-1.111,2.289c-2.652,0.919-4.838-0.001-5.827-2.858l-6.337-18.299c-0.354-1.021,0.181-2.12,1.201-2.474
		C156.672,16.211,157.771,16.745,158.124,17.765z"/>
</g>
<g>
	<path fill="#5CBA47" d="M113.972,139.977l-5.417,9.436c-0.592,0.99-1.756,1.492-2.874,1.215c-1.118-0.279-1.829-1.197-1.97-2.223
		l-2.241-18.219c-0.06-0.359-0.024-0.896,0.046-1.176c0.348-1.396,1.744-2.236,3.141-1.889c1.072,0.268,1.853,1.104,1.971,2.221
		l1.012,12.424l5.929-10.496c0.442-0.781,1.478-1.562,2.874-1.213c1.258,0.312,1.923,1.418,1.959,2.268l0.279,12.189l6.672-10.508
		c0.629-0.932,1.711-1.307,2.828-1.027c1.445,0.359,2.262,1.65,1.914,3.049c-0.07,0.279-0.257,0.629-0.477,0.92l-10.594,15.32
		c-0.627,0.932-1.65,1.27-2.722,1.004c-1.118-0.279-1.911-1.268-1.981-2.373L113.972,139.977z"/>
	<path fill="#5CBA47" d="M136.551,158.561c-6.289-1.566-9.309-6.127-7.418-13.719c1.902-7.641,6.707-10.254,12.996-8.688
		s9.309,6.127,7.406,13.766C147.645,157.514,142.839,160.125,136.551,158.561z M141.062,140.439
		c-3.354-0.836-5.705,1.055-6.854,5.666c-1.136,4.564,0.055,7.334,3.408,8.17c3.354,0.834,5.704-1.055,6.84-5.619
		C145.605,144.045,144.416,141.275,141.062,140.439z"/>
	<path fill="#5CBA47" d="M165.299,152.758l-5.416,9.436c-0.594,0.99-1.757,1.492-2.875,1.213c-1.118-0.277-1.829-1.197-1.97-2.221
		l-2.241-18.219c-0.059-0.361-0.023-0.898,0.045-1.178c0.348-1.396,1.746-2.236,3.143-1.889c1.07,0.268,1.852,1.105,1.969,2.223
		l1.014,12.422l5.928-10.496c0.442-0.779,1.477-1.561,2.875-1.213c1.258,0.312,1.922,1.418,1.959,2.268l0.278,12.189l6.673-10.508
		c0.627-0.932,1.709-1.305,2.828-1.027c1.443,0.359,2.261,1.65,1.912,3.049c-0.068,0.279-0.256,0.629-0.476,0.92l-10.593,15.32
		c-0.627,0.932-1.652,1.271-2.723,1.004c-1.118-0.277-1.91-1.268-1.981-2.373L165.299,152.758z"/>
</g>
<g>
	<path fill="#5CBA47" d="M37.242,153.863l4.356,4.127c0.522,0.496,0.509,1.277,0.015,1.801c-0.529,0.557-1.275,0.576-1.798,0.082
		l-4.007-3.799c-0.993-0.941-2.053-1.184-3.125-0.053c-1.189,1.256-0.973,2.387,0.003,3.311l4.024,3.814
		c0.522,0.496,0.51,1.277,0.015,1.801c-0.528,0.557-1.275,0.576-1.798,0.082l-4.006-3.797c-0.994-0.941-2.053-1.186-3.127-0.053
		c-1.237,1.307-0.884,2.469,0.145,3.443l3.885,3.682c0.521,0.494,0.525,1.26,0.014,1.799c-0.512,0.541-1.275,0.576-1.797,0.082
		l-6.342-6.01c-0.522-0.496-0.544-1.311-0.049-1.832c0.495-0.523,1.31-0.545,1.832-0.051c-0.191-0.809-0.039-2.053,1.068-3.221
		c1.354-1.428,2.482-1.713,3.576-1.504c-0.221-1.268,0.105-2.381,1.229-3.564C33.6,151.635,35.727,152.428,37.242,153.863z"/>
	<path fill="#5CBA47" d="M38.443,148.619l4.059,3.848c0.801,0.76,1.832,1.207,3.054-0.082c1.205-1.271,0.702-2.277-0.099-3.037
		l-4.059-3.848c-0.523-0.494-0.545-1.309-0.049-1.832c0.495-0.521,1.31-0.543,1.832-0.049l4.059,3.848
		c1.707,1.617,2.664,3.748,0.023,6.537c-2.658,2.805-4.838,1.961-6.545,0.344L36.66,150.5c-0.523-0.494-0.545-1.309-0.05-1.832
		C37.105,148.146,37.919,148.125,38.443,148.619z"/>
	<path fill="#5CBA47" d="M46.939,137.561c1.52-1.604,3.195-1.766,3.894-1.701c0.324,0.043,0.513,0.123,0.722,0.32
		c0.471,0.447,0.49,1.158,0.044,1.629c-0.265,0.279-0.585,0.373-0.907,0.365c-0.459-0.006-1.323,0.035-2.148,0.906
		c-1.156,1.219-0.842,2.771,0.795,4.324c1.673,1.586,3.223,1.799,4.379,0.578c0.76-0.801,0.854-1.703,0.938-2.385
		c0.043-0.322,0.156-0.514,0.321-0.688c0.446-0.471,1.159-0.488,1.629-0.043c0.243,0.23,0.37,0.516,0.364,0.906
		c-0.014,0.748-0.295,2.301-1.649,3.729c-2.245,2.369-4.942,2.492-7.781-0.199S44.694,139.93,46.939,137.561z"/>
	<path fill="#5CBA47" d="M53.812,132.402c-0.191-0.811-0.038-2.053,1.068-3.221c2.244-2.369,4.289-1.49,5.805-0.053l4.355,4.127
		c0.522,0.496,0.51,1.277,0.015,1.799c-0.528,0.559-1.274,0.578-1.797,0.082l-4.007-3.797c-0.993-0.941-2.053-1.184-3.127-0.053
		c-1.237,1.307-0.884,2.469,0.145,3.443l3.885,3.682c0.521,0.496,0.525,1.26,0.014,1.801c-0.512,0.539-1.275,0.576-1.797,0.082
		l-10.697-10.139c-0.522-0.496-0.544-1.311-0.049-1.832c0.495-0.523,1.31-0.545,1.832-0.049L53.812,132.402z"/>
	<path fill="#5CBA47" d="M64.947,122.191c-0.412,0.434-1.092,0.453-1.527,0.039c-0.436-0.412-0.453-1.092-0.041-1.525l0.348-0.367
		l-0.941-0.891c-1.62-1.535-2.061-4.004,0.07-6.25c0.429-0.453,1.141-0.473,1.594-0.043s0.473,1.141,0.043,1.594
		c-0.908,0.959-0.83,1.959-0.062,2.686l1.08,1.023l1.105-1.168c0.413-0.436,1.092-0.453,1.527-0.041s0.453,1.092,0.041,1.527
		l-1.105,1.168l5.574,5.283c0.521,0.494,0.51,1.277,0.014,1.799c-0.528,0.559-1.275,0.578-1.797,0.082l-5.575-5.283L64.947,122.191z
		"/>
	<path fill="#5CBA47" d="M71.014,114.252l4.06,3.848c0.801,0.76,1.832,1.207,3.053-0.082c1.207-1.273,0.704-2.277-0.098-3.037
		l-4.059-3.848c-0.522-0.494-0.545-1.309-0.049-1.832s1.309-0.543,1.832-0.049l4.059,3.848c1.707,1.617,2.665,3.748,0.022,6.537
		c-2.658,2.805-4.837,1.961-6.544,0.344l-4.059-3.848c-0.523-0.494-0.545-1.309-0.049-1.832
		C69.678,113.777,70.492,113.758,71.014,114.252z"/>
	<path fill="#5CBA47" d="M85.977,102.442l4.356,4.128c0.521,0.496,0.51,1.277,0.014,1.799c-0.528,0.559-1.275,0.578-1.797,0.082
		l-4.008-3.797c-0.992-0.941-2.052-1.186-3.125-0.053c-1.238,1.307-0.885,2.471,0.143,3.443l3.886,3.682
		c0.522,0.496,0.526,1.26,0.015,1.801c-0.512,0.539-1.275,0.576-1.798,0.08l-6.342-6.01c-0.522-0.494-0.544-1.309-0.049-1.832
		c0.495-0.522,1.31-0.544,1.832-0.049c-0.192-0.811-0.038-2.055,1.067-3.221C82.417,100.126,84.462,101.006,85.977,102.442z"/>
	<path fill="#5CBA47" d="M94.215,93.75l4.357,4.128c0.521,0.495,0.51,1.276,0.014,1.799c-0.527,0.557-1.275,0.577-1.797,0.082
		l-4.007-3.797c-0.993-0.941-2.052-1.185-3.126-0.052c-1.238,1.306-0.885,2.469,0.143,3.443l3.886,3.682
		c0.523,0.495,0.527,1.259,0.015,1.8c-0.512,0.54-1.275,0.576-1.797,0.082l-6.342-6.011c-0.523-0.495-0.545-1.31-0.049-1.833
		c0.494-0.522,1.309-0.544,1.831-0.049c-0.191-0.81-0.038-2.054,1.068-3.221C90.656,91.434,92.701,92.314,94.215,93.75z"/>
	<path fill="#5CBA47" d="M102.082,94.593l-8.728-3.179c-0.12-0.048-0.274-0.129-0.432-0.277c-0.522-0.495-0.544-1.31-0.05-1.832
		c0.496-0.523,1.109-0.438,1.418-0.31l6.66,2.673l-3.027-6.506c-0.145-0.302-0.262-0.91,0.232-1.433
		c0.496-0.522,1.311-0.544,1.832-0.049c0.158,0.148,0.246,0.299,0.301,0.417l4.246,10.174c0.98,2.386,1.16,4.638-0.492,6.38
		c-0.479,0.505-1.223,0.559-1.729,0.08c-0.506-0.478-0.492-1.226-0.014-1.731C103.357,97.885,102.965,96.521,102.082,94.593z"/>
</g>
</svg>
