<?xml version="1.0" encoding="utf-8"?>
<!-- Generator: Adobe Illustrator 16.0.0, SVG Export Plug-In . SVG Version: 6.00 Build 0)  -->
<!DOCTYPE svg PUBLIC "-//W3C//DTD SVG 1.1//EN" "http://www.w3.org/Graphics/SVG/1.1/DTD/svg11.dtd">
<svg version="1.1" id="Layer_1" xmlns="http://www.w3.org/2000/svg" xmlns:xlink="http://www.w3.org/1999/xlink" x="0px" y="0px"
	 width="200px" height="200px" viewBox="0 0 200 200" enable-background="new 0 0 200 200" xml:space="preserve">
<path fill="#010101" d="M146.336,122.818L146.336,122.818L123.518,100l22.818-22.817c6.217-6.219,6.217-16.3,0-22.518
	c-6.219-6.219-16.299-6.218-22.518,0L101,77.482L78.182,54.664c-6.219-6.218-16.3-6.218-22.519,0
	c-6.219,6.218-6.218,16.299,0,22.517L78.484,100l-22.819,22.82c-6.218,6.217-6.218,16.297,0,22.516c6.218,6.22,16.298,6.22,22.516,0
	h0.001l22.821-22.821l22.819,22.818c6.217,6.22,16.296,6.22,22.516,0C152.555,139.117,152.555,129.037,146.336,122.818z"/>
</svg>
